<svg xmlns="http://www.w3.org/2000/svg" width="64" height="64" viewBox="0 0 64 64">
  <rect x="4" y="4" width="56" height="56" rx="8" fill="#1d2736" stroke="#7ac7ff" stroke-width="3"/>
  <path d="M18 46c5-15 16-25 32-28 0 15-10 27-27 34z" fill="#d8f2ff"/>
  <path d="M22 46l-6 7 7 5 5-8z" fill="#ffcf62"/>
  <path d="M24 41l20-18M31 47l15-13M20 36l15-15" stroke="#7ac7ff" stroke-width="3" stroke-linecap="round"/>
  <path d="M20 20l9-7 9 7v7c0 6-4 10-9 13-5-3-9-7-9-13z" fill="#7ac7ff" opacity="0.88"/>
</svg>
