<svg xmlns="http://www.w3.org/2000/svg" width="64" height="64" viewBox="0 0 64 64">
  <rect x="4" y="4" width="56" height="56" rx="8" fill="#321f1a" stroke="#ff9a5a" stroke-width="3"/>
  <path d="M24 51c-8-8-4-18 4-24 0 8 7 9 7 18 5-5 5-12 2-18 12 9 13 21 3 28z" fill="#ffcf62"/>
  <path d="M28 51c-4-5-2-11 3-16 1 5 5 7 4 14 3-2 4-5 4-8 5 6 4 12-2 15z" fill="#ff6d3a"/>
  <path d="M17 23h10M37 23h10" stroke="#ffd6a8" stroke-width="4" stroke-linecap="round"/>
  <path d="M24 18l8-7 8 7" fill="none" stroke="#ffd6a8" stroke-width="4" stroke-linecap="round" stroke-linejoin="round"/>
</svg>
