<svg xmlns="http://www.w3.org/2000/svg" width="512" height="512" viewBox="0 0 512 512" shape-rendering="crispEdges">
  <g>
    <rect x="24" y="16" width="50" height="224" fill="#211d1a"/>
    <rect x="32" y="24" width="34" height="208" fill="#62564c"/>
    <rect x="42" y="34" width="14" height="188" fill="#9a7b5e"/>
    <rect x="182" y="16" width="50" height="224" fill="#211d1a"/>
    <rect x="190" y="24" width="34" height="208" fill="#62564c"/>
    <rect x="200" y="34" width="14" height="188" fill="#9a7b5e"/>
    <rect x="16" y="12" width="224" height="38" fill="#332b26"/>
    <rect x="26" y="20" width="204" height="20" fill="#80664f"/>
    <rect x="42" y="56" width="16" height="16" fill="#dc6b2f"/>
    <rect x="198" y="56" width="16" height="16" fill="#dc6b2f"/>
    <rect x="47" y="61" width="6" height="6" fill="#ffd06a"/>
    <rect x="203" y="61" width="6" height="6" fill="#ffd06a"/>
  </g>
  <g transform="translate(256 0)">
    <rect x="16" y="24" width="224" height="50" fill="#211d1a"/>
    <rect x="24" y="32" width="208" height="34" fill="#62564c"/>
    <rect x="34" y="42" width="188" height="14" fill="#9a7b5e"/>
    <rect x="16" y="182" width="224" height="50" fill="#211d1a"/>
    <rect x="24" y="190" width="208" height="34" fill="#62564c"/>
    <rect x="34" y="200" width="188" height="14" fill="#9a7b5e"/>
    <rect x="12" y="16" width="38" height="224" fill="#332b26"/>
    <rect x="20" y="26" width="20" height="204" fill="#80664f"/>
    <rect x="56" y="42" width="16" height="16" fill="#dc6b2f"/>
    <rect x="56" y="198" width="16" height="16" fill="#dc6b2f"/>
    <rect x="61" y="47" width="6" height="6" fill="#ffd06a"/>
    <rect x="61" y="203" width="6" height="6" fill="#ffd06a"/>
  </g>
  <g transform="translate(0 256)">
    <path d="M20 20h192v44H64v148H20z" fill="#211d1a"/>
    <path d="M30 30h166v24H54v142H30z" fill="#62564c"/>
    <path d="M58 58h84v20H78v64H58z" fill="#80664f"/>
    <rect x="68" y="68" width="12" height="12" fill="#dc6b2f"/>
    <rect x="150" y="36" width="28" height="10" fill="#9a7b5e"/>
    <rect x="36" y="150" width="10" height="28" fill="#9a7b5e"/>
  </g>
  <g transform="translate(256 256)">
    <rect x="18" y="62" width="220" height="132" fill="#211d1a"/>
    <rect x="28" y="72" width="200" height="112" fill="#4b4038"/>
    <rect x="42" y="86" width="172" height="84" fill="#62564c"/>
    <rect x="52" y="96" width="152" height="10" fill="#9a7b5e"/>
    <rect x="52" y="150" width="152" height="10" fill="#332b26"/>
    <rect x="70" y="118" width="116" height="22" fill="#80664f"/>
    <rect x="80" y="124" width="96" height="10" fill="#dc6b2f"/>
  </g>
</svg>
