<svg xmlns="http://www.w3.org/2000/svg" width="512" height="256" viewBox="0 0 512 256" shape-rendering="crispEdges">
  <defs>
    <pattern id="warrens-wall" width="64" height="64" patternUnits="userSpaceOnUse">
      <rect width="64" height="64" fill="#26362e"/>
      <rect x="0" y="0" width="64" height="4" fill="#111a17"/>
      <rect x="0" y="32" width="64" height="3" fill="#17231e"/>
      <rect x="30" y="0" width="4" height="32" fill="#17231e"/>
      <rect x="12" y="35" width="4" height="29" fill="#17231e"/>
      <rect x="4" y="7" width="20" height="3" fill="#405546"/>
      <rect x="39" y="40" width="18" height="3" fill="#405546"/>
      <rect x="2" y="29" width="12" height="3" fill="#58704f"/>
      <rect x="47" y="0" width="4" height="7" fill="#58704f"/>
      <rect x="56" y="27" width="6" height="4" fill="#9a7138"/>
      <rect x="58" y="28" width="2" height="2" fill="#d09a49"/>
    </pattern>
    <pattern id="warrens-obstacle" width="64" height="64" patternUnits="userSpaceOnUse">
      <rect width="64" height="64" fill="#31483a"/>
      <rect x="0" y="0" width="64" height="6" fill="#18251e"/>
      <rect x="0" y="58" width="64" height="6" fill="#17221c"/>
      <rect x="0" y="0" width="6" height="64" fill="#1d2b24"/>
      <rect x="58" y="0" width="6" height="64" fill="#142019"/>
      <rect x="10" y="10" width="44" height="5" fill="#50664f"/>
      <rect x="10" y="49" width="44" height="4" fill="#25372d"/>
      <rect x="14" y="18" width="8" height="8" fill="#71815a"/>
      <rect x="42" y="38" width="9" height="8" fill="#516744"/>
      <rect x="27" y="27" width="10" height="10" fill="#956a34"/>
      <rect x="30" y="30" width="4" height="4" fill="#d29b4d"/>
    </pattern>
  </defs>
  <rect width="256" height="256" fill="url(#warrens-wall)"/>
  <rect x="256" width="256" height="256" fill="url(#warrens-obstacle)"/>
</svg>
