<svg xmlns="http://www.w3.org/2000/svg" width="512" height="512" viewBox="0 0 512 512" shape-rendering="crispEdges">
  <!-- Vertical doorway: timber posts, moss caps, amber fasteners. -->
  <g>
    <rect x="28" y="18" width="42" height="220" fill="#18251e"/>
    <rect x="36" y="24" width="28" height="208" fill="#405546"/>
    <rect x="44" y="32" width="8" height="192" fill="#71815a"/>
    <rect x="186" y="18" width="42" height="220" fill="#18251e"/>
    <rect x="192" y="24" width="28" height="208" fill="#405546"/>
    <rect x="204" y="32" width="8" height="192" fill="#71815a"/>
    <rect x="20" y="14" width="216" height="30" fill="#26362e"/>
    <rect x="28" y="20" width="200" height="14" fill="#58704f"/>
    <rect x="34" y="42" width="24" height="10" fill="#9a7138"/>
    <rect x="198" y="42" width="24" height="10" fill="#9a7138"/>
    <rect x="45" y="45" width="4" height="4" fill="#d09a49"/>
    <rect x="207" y="45" width="4" height="4" fill="#d09a49"/>
  </g>
  <!-- Horizontal doorway. -->
  <g transform="translate(256 0)">
    <rect x="18" y="28" width="220" height="42" fill="#18251e"/>
    <rect x="24" y="36" width="208" height="28" fill="#405546"/>
    <rect x="32" y="44" width="192" height="8" fill="#71815a"/>
    <rect x="18" y="186" width="220" height="42" fill="#18251e"/>
    <rect x="24" y="192" width="208" height="28" fill="#405546"/>
    <rect x="32" y="204" width="192" height="8" fill="#71815a"/>
    <rect x="14" y="20" width="30" height="216" fill="#26362e"/>
    <rect x="20" y="28" width="14" height="200" fill="#58704f"/>
    <rect x="42" y="34" width="10" height="24" fill="#9a7138"/>
    <rect x="42" y="198" width="10" height="24" fill="#9a7138"/>
    <rect x="45" y="45" width="4" height="4" fill="#d09a49"/>
    <rect x="45" y="207" width="4" height="4" fill="#d09a49"/>
  </g>
  <!-- Corner bracket, rotated by runtime for all corners. -->
  <g transform="translate(0 256)">
    <path d="M24 24h184v36H60v148H24z" fill="#18251e"/>
    <path d="M34 34h158v16H50v142H34z" fill="#50664f"/>
    <path d="M58 58h74v18H76v56H58z" fill="#956a34"/>
    <rect x="68" y="68" width="8" height="8" fill="#d29b4d"/>
    <rect x="148" y="36" width="18" height="8" fill="#71815a"/>
    <rect x="36" y="148" width="8" height="18" fill="#71815a"/>
  </g>
  <!-- Threshold plate. -->
  <g transform="translate(256 256)">
    <rect x="22" y="66" width="212" height="124" fill="#17221c"/>
    <rect x="30" y="74" width="196" height="108" fill="#31483a"/>
    <rect x="42" y="86" width="172" height="84" fill="#26362e"/>
    <rect x="52" y="98" width="152" height="8" fill="#58704f"/>
    <rect x="52" y="150" width="152" height="8" fill="#18251e"/>
    <rect x="64" y="118" width="128" height="20" fill="#405546"/>
    <rect x="74" y="124" width="108" height="8" fill="#9a7138"/>
  </g>
</svg>
