<svg xmlns="http://www.w3.org/2000/svg" width="512" height="256" viewBox="0 0 512 256" shape-rendering="crispEdges">
  <defs>
    <pattern id="void-wall" width="64" height="64" patternUnits="userSpaceOnUse">
      <rect width="64" height="64" fill="#282238"/>
      <rect x="0" y="0" width="64" height="4" fill="#100d18"/>
      <rect x="0" y="32" width="64" height="3" fill="#171224"/>
      <rect x="31" y="0" width="3" height="32" fill="#171224"/>
      <rect x="15" y="35" width="3" height="29" fill="#171224"/>
      <rect x="6" y="8" width="18" height="3" fill="#53436d"/>
      <rect x="39" y="41" width="18" height="3" fill="#53436d"/>
      <rect x="43" y="14" width="4" height="4" fill="#9f5bc3"/>
      <rect x="44" y="15" width="2" height="2" fill="#dda5ff"/>
      <rect x="2" y="28" width="13" height="2" fill="#2bb5bd"/>
      <rect x="13" y="26" width="3" height="4" fill="#5ce6dd"/>
      <rect x="51" y="60" width="11" height="2" fill="#2bb5bd"/>
    </pattern>
    <pattern id="void-obstacle" width="64" height="64" patternUnits="userSpaceOnUse">
      <rect width="64" height="64" fill="#36294b"/>
      <rect x="0" y="0" width="64" height="6" fill="#151020"/>
      <rect x="0" y="58" width="64" height="6" fill="#0f0c18"/>
      <rect x="0" y="0" width="6" height="64" fill="#1b1528"/>
      <rect x="58" y="0" width="6" height="64" fill="#120e1d"/>
      <rect x="12" y="12" width="40" height="40" fill="#48365e"/>
      <rect x="18" y="18" width="28" height="28" fill="#2d2340"/>
      <rect x="28" y="20" width="8" height="24" fill="#2a99a8"/>
      <rect x="30" y="22" width="4" height="20" fill="#63e3dd"/>
      <rect x="20" y="28" width="24" height="8" fill="#2a99a8"/>
      <rect x="22" y="30" width="20" height="4" fill="#63e3dd"/>
      <rect x="9" y="9" width="5" height="5" fill="#9e5ac5"/>
      <rect x="50" y="50" width="5" height="5" fill="#9e5ac5"/>
    </pattern>
  </defs>
  <rect width="256" height="256" fill="url(#void-wall)"/>
  <rect x="256" width="256" height="256" fill="url(#void-obstacle)"/>
</svg>
